<?xml version="1.0" standalone="no"?><!DOCTYPE svg PUBLIC "-//W3C//DTD SVG 1.1//EN" "http://www.w3.org/Graphics/SVG/1.1/DTD/svg11.dtd"><svg t="1511754984915" class="icon" style="" viewBox="0 0 1024 1024" version="1.1" xmlns="http://www.w3.org/2000/svg" p-id="9009" xmlns:xlink="http://www.w3.org/1999/xlink" width="200" height="200"><defs><style type="text/css"></style></defs><path d="M503.606557 16.786904C225.472131 16.786904 0 240.886904 0 517.326577 0 793.766249 225.472131 1017.866249 503.606557 1017.866249 781.740984 1017.866249 1007.213114 793.766249 1007.213114 517.326577 1007.213114 240.886904 781.740984 16.786904 503.606557 16.786904L503.606557 16.786904 503.606557 16.786904ZM825.280197 837.366726C783.315458 878.99585 734.465522 911.672047 680.088006 934.488103 623.833327 958.091186 564.061274 970.058469 502.431481 970.058469 440.800716 970.058469 381.028663 958.090217 324.774956 934.488103 270.39744 911.672047 221.547504 878.99682 179.582764 837.366726 137.590834 795.712402 104.624434 747.206475 81.596414 693.197169 57.751686 637.272634 45.660348 577.844272 45.660348 516.560774 45.660348 455.277275 57.750715 395.847945 81.596414 339.924378 104.624434 285.916042 137.591805 237.410115 179.582764 195.754821 221.547504 154.125698 270.39744 121.4495 324.774956 98.633445 381.028663 75.030361 440.800716 63.06308 502.431481 63.06308 564.062244 63.06308 623.834299 75.031331 680.088006 98.633445 734.465522 121.4495 783.316428 154.12473 825.280197 195.754821 867.272128 237.409147 900.238527 285.915072 923.266548 339.924378 947.111275 395.848915 959.202613 455.277275 959.202613 516.560774 959.202613 577.844272 947.112247 637.273604 923.266548 693.197169 900.239499 747.206475 867.272128 795.712402 825.280197 837.366726L825.280197 837.366726 825.280197 837.366726ZM686.760984 561.684281C656.303606 541.219364 623.147213 526.294118 588.544918 517.125921 646.206886 485.006248 685.205902 424.145593 685.205902 354.49543 685.205902 251.487232 599.918361 167.683953 495.086558 167.683953 390.254755 167.683953 304.967212 251.487232 304.967212 354.49543 304.967212 426.917396 347.126557 489.847561 408.596066 520.833134 358.025901 536.299363 312.347212 563.651494 274.927869 601.139692 230.108853 646.042315 200.153115 702.237724 188.205246 763.744609 187.82459 765.150184 187.602295 766.618708 187.602295 768.14133 187.602295 777.578052 195.387541 785.227559 204.991476 785.227559 213.363935 785.227559 224.967541 774.840675 226.622952 767.098707 248.158033 653.173463 369.311471 561.684287 451.789179 553.801236 478.42623 551.282794 545.573768 553.801234 545.573768 553.801234 545.573768 553.801234 616.464914 561.92607 663.081964 593.250005 726.34262 635.757546 766.332816 693.126576 780.590192 767.098707 782.480683 775.12297 796.098689 784.184936 804.354098 784.184936 813.95705 784.184936 821.743279 776.534446 821.743279 767.098707 821.743279 766.264609 821.66164 765.450184 821.543607 764.648544 805.259017 680.865921 757.499017 609.217068 686.760984 561.684281ZM348.161022 354.249473C348.161022 274.620402 414.090818 209.837098 495.129741 209.837098 576.168661 209.837098 642.098457 274.61947 642.098457 354.249473 642.098457 429.01619 583.973553 490.690379 509.79218 497.944359 502.187365 497.827105 494.557425 497.986237 486.915385 498.43106 409.683526 494.229428 348.160092 431.169584 348.160092 354.248541L348.160092 354.248541 348.161022 354.249473Z" p-id="9010" fill="#ffffff"></path></svg>