<?xml version="1.0" encoding="UTF-8"?>
<svg width="1072px" height="195px" viewBox="0 0 1072 195" version="1.1" xmlns="http://www.w3.org/2000/svg" xmlns:xlink="http://www.w3.org/1999/xlink">
    <!-- Generator: Sketch 42 (36781) - http://www.bohemiancoding.com/sketch -->
    <title>Artboard</title>
    <desc>Created with Sketch.</desc>
    <defs></defs>
    <g id="Page-1" stroke="none" stroke-width="1" fill="none" fill-rule="evenodd">
        <g id="Artboard" fill-rule="nonzero" fill="#FFFFFF">
            <g id="main" transform="translate(0.000000, 2.000000)">
                <polygon id="Shape" points="154.05 190.22 189.54 190.22 120.73 1.28 69.29 1.28 0.52 190.22 35.97 190.22 83.26 60.26 106.74 60.24"></polygon>
                <polygon id="Shape" points="102.99 131.15 87 131.15 65.49 190.22 124.5 190.22"></polygon>
                <path d="M277.8,190.2 L243.69,190.2 L243.69,118.06 L275,118.06 C290.38,118.53 297.66,124.34 298.85,135.49 C298.6,144.56 296.79,150.13 287.33,152.22 L287.33,152.55 C298.22,154.42 302.12,160.12 303.06,169.64 C303.07,183.34 295.32,190.2 277.8,190.2 Z M272.52,127.47 L256.14,127.47 L256.14,148.38 L272.53,148.38 C281.75,148.15 285.53,144.56 285.71,137.57 C285.49,130.85 281.75,127.47 272.53,127.47 L272.52,127.47 Z M275.3,157.78 L256.14,157.78 L256.14,181.14 L275.67,181.14 C285.61,181.14 289.59,177.14 289.59,169.28 C288.85,161.85 284.77,158 275.31,157.78 L275.3,157.78 Z" id="Shape"></path>
                <polygon id="Shape" points="387.76 190.2 387.76 118.06 400.2 118.06 400.2 190.2"></polygon>
                <path d="M411.91,167.77 L423,166.06 C425.52,175.06 431.28,180.55 442.3,180.06 C449.93,179.69 456.93,177.36 457.3,170.6 C457.61,165.03 453.3,161.74 444.3,159.04 C440.62,157.92 437.39,157.29 434.65,156.67 C420.65,153.52 412.94,147.21 413.65,137.06 C414.796667,125.126667 423.293333,118.82 439.14,118.14 C455.45,117.93 464.65,124.52 467.14,137.63 L455.87,140 C454.5,131.89 448.78,128.74 439.96,128.7 C432.5,128.7 426.47,130.94 426.45,136.97 C426.45,142.02 430.7,145.42 441.97,147.46 C446.046776,148.437231 450.05532,149.67988 453.97,151.18 C464.77,155.013333 470.056667,161.206667 469.83,169.76 C469.123333,182.826667 460.05,189.59 442.61,190.05 C424.48,190.31 414.91,182.87 411.91,167.77 Z" id="Shape"></path>
                <polygon id="Shape" points="540.4 190.2 527.6 190.2 527.6 161.2 491.3 161.2 491.3 190.2 478.88 190.2 478.88 118.06 491.31 118.06 491.31 150.42 527.61 150.42 527.61 118.06 540.41 118.06"></polygon>
                <path d="M776.61,140.16 L764.51,142.24 C761.73,133.66 755.77,128.98 746.51,129.07 C733.56,129.2 726.67,138.17 725.75,154.45 C726.44,170.73 733.36,178.45 746.5,179.58 C757.1,179.58 762.73,173.88 764.97,164.46 L777.27,167 C773.836667,182.606667 763.58,190.41 746.5,190.41 C725.053333,189.276667 713.753333,177.276667 712.6,154.41 C713.76,131.58 726.35,118.11 746.5,118.11 C761.74,118.15 771.76,126.82 776.61,140.16 Z" id="Shape"></path>
                <polygon id="Shape" points="840.64 190.17 789.13 190.17 789.13 118.39 801.57 118.39 801.57 180.39 840.64 180.39"></polygon>
                <path d="M884.23,117.34 C906.23,117.34 919.31,130.94 919.66,154.15 C920.01,177.36 905.2,190.28 883.88,190.28 C863.53,190.28 848.47,176.88 848.45,154.15 C848.43,130.51 863.54,117.34 884.23,117.34 Z M883.54,179.34 C898.04,179.46 905.54,170.91 905.97,154.17 C905.26,137.43 897.97,128.55 883.88,128.67 C869.79,128.79 862.35,137.67 861.43,154.17 C862.14,170.67 869.48,179.21 883.54,179.32 L883.54,179.34 Z" id="Shape"></path>
                <path d="M932,159.58 L932,118.4 L944.6,118.4 L944.6,159.58 C944.6,173.58 950.77,179.58 963.14,179.58 C975.51,179.58 981.68,173.48 981.68,159.28 L981.68,118.4 L993.94,118.4 L993.94,158.9 C993.94,179.953333 983.443333,190.48 962.45,190.48 C942.15,190.473333 932,180.173333 932,159.58 Z" id="Shape"></path>
                <path d="M1032,190.34 L1007.49,190.34 L1007.49,118.2 L1031.65,118.2 C1056.52333,118.673333 1069.19,130.64 1069.65,154.1 C1070.38333,178.946667 1057.83333,191.026667 1032,190.34 Z M1031.29,128.67 L1020,128.67 L1020,180.57 L1031,180.57 C1048.05,180.57 1056.68,172.75 1056.58,155.1 C1056.45,137.64 1047.66,129.13 1031.31,128.67 L1031.29,128.67 Z" id="Shape"></path>
                <path d="M681.5,118.41 L681.5,164.75 C681.5,167.75 681.5,170.17 681.6,171.94 L679.55,171.94 C678.34,169.94 677.55,168.53 677.24,167.94 C676.54,166.786667 666,150.29 645.62,118.45 L631.07,118.45 L631.07,190.2 L643.16,190.2 L643.16,144.88 C643.16,140.88 643.11,137.88 643.02,135.75 L644.77,135.75 C645.45,136.92 646.33,138.33 647.41,140.02 C648.116667,141.18 658.886667,157.903333 679.72,190.19 L693.59,190.19 L693.59,118.41 L681.5,118.41 Z" id="Shape"></path>
                <path d="M350.7,118.16 L334.12,118.16 L307,190 L320.2,190 L326.82,172.5 L358.07,172.5 L364.64,190 L378.18,190 L350.7,118.16 Z M330.42,162.82 L340.48,136.19 L344.26,136.11 L354.26,162.83 L330.42,162.82 Z" id="Shape"></path>
                <path d="M594.05,118.16 L577.47,118.16 L550.34,190 L563.54,190 L570.16,172.5 L601.41,172.5 L608,190 L621.54,190 L594.05,118.16 Z M573.77,162.82 L583.83,136.19 L587.61,136.11 L597.61,162.83 L573.77,162.82 Z" id="Shape"></path>
                <path d="M268,0.07 L280.47,1.07 L278.36,10 L315.92,10 L315.92,82.19 L304.67,82.19 L304.67,77.91 L254.67,77.91 L254.67,82.19 L243.77,82.19 L243.77,10 L265.3,10 L268,0.07 Z M254.7,20.24 L254.7,39.54 L304.7,39.54 L304.7,20.24 L254.7,20.24 Z M254.7,49.39 L254.7,68.39 L304.7,68.39 L304.7,49.39 L254.7,49.39 Z" id="Shape"></path>
                <polygon id="Shape" points="331.68 75.52 331.68 10.77 343 10.77 343 66 363.42 66 363.42 1.21 375 1.21 375 66 395.4 66 395.4 10.27 406.32 10.27 406.32 82.21 395.4 82.21 395.4 75.51"></polygon>
                <path d="M419.13,40.3 L419.13,29.75 L499.39,29.75 L499.39,40.3 L461.39,40.3 C455.05,49.01 448.14,57.68 440.61,66.36 C444.61,66.36 451.89,66.12 462.45,65.64 C469.73,65.44 475.1,65.28 478.64,65.28 C475.282592,60.3863417 471.639606,55.6948699 467.73,51.23 L476.52,45.58 C484.026667,54.5 492.113333,64.2466667 500.78,74.82 L491.88,81.96 C490.24,79.85 487.88,76.65 486.03,74.12 C478.503333,74.3266667 466.17,74.91 449.03,75.87 C445.27,76.08 442.57,76.2 440.93,76.2 C438.84,76.43 436.01,76.82 432.5,77.25 C431.087805,77.4508863 429.665682,77.574404 428.24,77.62 L422,68.42 C426.060719,65.9512779 429.719737,62.8756797 432.85,59.3 C438.004225,53.3167264 442.716645,46.9666562 446.95,40.3 L419.13,40.3 Z M426.56,14.23 L426.56,3.68 L495.17,3.68 L495.17,14.22 L426.56,14.23 Z" id="Shape"></path>
                <path d="M515,13.56 C514.76607,10.3483242 514.288023,7.15911252 513.57,4.02 C522.27,3.81 532.94,2.96 545.63,1.55 L547.73,10.76 L546.73,10.76 C542.954417,11.020669 539.19563,11.4846755 535.47,12.15 L535.47,23.75 L546.73,23.75 L546.73,33.29 L535.47,33.29 L535.47,42.78 L538.26,39.61 C539.44,40.51 541.46,42.09 544.26,44.15 C546.88,46.29 548.75,47.81 549.89,48.77 L543.2,56.14 C540.765286,53.6618652 538.191099,51.3247304 535.49,49.14 L535.49,82.58 L525.62,82.58 L525.62,49.81 C523.164748,55.799088 519.973548,61.4592687 516.12,66.66 L511.28,58.3 C516.755695,50.5644759 521.224914,42.1636879 524.58,33.3 L512.94,33.3 L512.94,23.76 L525.62,23.76 L525.62,12.83 C522.104882,13.3538585 518.553736,13.597958 515,13.56 Z M546,64.61 L544.94,54.74 L575.94,51.91 L575.94,1.15 L586.48,1.15 L586.48,50.84 L597.4,49.84 L597.78,59.49 L586.48,60.78 L586.48,82.59 L575.94,82.59 L575.94,61.77 L546,64.61 Z M563.24,47.34 C560.44,44.99 556.24,41.59 550.6,37.13 C549.841492,36.3523437 549.00737,35.6522172 548.11,35.04 L554.43,28.31 C555.67,29.31 557.43,30.55 559.73,32.23 C563.73,35.23 567.13,37.85 569.94,39.94 L563.24,47.34 Z M567.13,29.72 C564.96,27.6 561.38,24.36 556.25,19.92 C554.746939,18.828307 553.317196,17.6390813 551.97,16.36 L557.97,9.68 C564.5,14.81 569.97,19.09 574.15,22.34 L567.13,29.72 Z" id="Shape"></path>
                <path d="M609.16,23.41 L609.16,13.92 L618.64,13.92 L618.64,1.32 L628.83,1.32 L628.83,13.92 L637,13.92 L637,23.41 L628.88,23.41 L628.88,37.85 L637.36,36.07 C637.36,39.6 637.65,45.9 637.65,45.9 C637.65,45.9 631.93,47.34 628.88,48.06 L628.88,71.62 C629.11,78.17 626.07,81.62 619.7,81.8 C616.7,82.09 613.77,82.21 610.93,82.21 C610.67,80.77 610.35,78.68 609.87,75.87 C609.514328,74.8456909 609.289219,73.7806256 609.2,72.7 L615.2,72.7 C617.76,72.7 618.94,71.29 618.73,68.47 L618.73,50.53 L608.86,52.95 L608.14,41.68 C609.79,41.47 612.63,41.01 616.63,40.29 C617.320397,40.1036823 618.026882,39.9831445 618.74,39.93 L618.74,23.41 L609.16,23.41 Z M639.75,20.57 L639.75,11.08 L659.46,11.08 L659.46,1 L670,1 L670,11.1 L691,11.1 L691,20.59 L670,20.59 L670,31.5 L688.64,31.5 L688.64,41 C684.15,51.08 678.89,58.84 672.77,64.26 C679.636788,68.3696102 687.040767,71.5062049 694.77,73.58 C693.95685,75.1812269 693.013685,76.7130328 691.95,78.16 C690.810174,79.682357 689.591858,81.1443359 688.3,82.54 C688.3,82.54 671.05,74.91 664.73,70.88 C658.63,74.67 649.73,78.05 638.27,82.54 C636.61,79.54 634.8,77.02 632.68,73.75 C642.553333,70.8833333 650.526667,67.72 656.6,64.26 C650.789923,57.7795327 645.961864,50.4818521 642.27,42.6 L646.4,40.6 L640.4,40.6 L640.4,31.5 L659.4,31.5 L659.4,20.57 L639.75,20.57 Z M677.81,40.65 L652.08,40.65 C655.352366,47.1450223 659.635745,53.0789692 664.77,58.23 C670.325674,53.3755987 674.772813,47.383557 677.81,40.66 L677.81,40.65 Z" id="Shape"></path>
            </g>
        </g>
    </g>
</svg>